<mxfile>
    <diagram id="rVW9Xq6m_tmSxOatVOXA" name="Page-1">
        <mxGraphModel dx="1078" dy="779" grid="1" gridSize="10" guides="1" tooltips="1" connect="1" arrows="1" fold="1" page="1" pageScale="1" pageWidth="827" pageHeight="1169" math="0" shadow="0">
            <root>
                <mxCell id="0"/>
                <mxCell id="1" parent="0"/>
                <mxCell id="44" value="" style="rounded=1;whiteSpace=wrap;html=1;" vertex="1" parent="1">
                    <mxGeometry x="40" y="920" width="760" height="240" as="geometry"/>
                </mxCell>
                <mxCell id="16" value="" style="group" parent="1" vertex="1" connectable="0">
                    <mxGeometry x="330" y="10" width="140" height="80" as="geometry"/>
                </mxCell>
                <mxCell id="6" value="Clients" style="whiteSpace=wrap;html=1;rounded=1;fillColor=#008a00;strokeColor=#005700;fontColor=#ffffff;strokeWidth=2;" parent="16" vertex="1">
                    <mxGeometry x="10" y="10" width="120" height="60" as="geometry"/>
                </mxCell>
                <mxCell id="5" value="Clients" style="whiteSpace=wrap;html=1;rounded=1;fillColor=#008a00;strokeColor=#005700;fontColor=#ffffff;strokeWidth=2;" parent="16" vertex="1">
                    <mxGeometry x="20" y="20" width="120" height="60" as="geometry"/>
                </mxCell>
                <mxCell id="4" value="" style="edgeStyle=orthogonalEdgeStyle;rounded=0;orthogonalLoop=1;jettySize=auto;html=1;startArrow=blockThin;startFill=1;" parent="1" source="2" target="3" edge="1">
                    <mxGeometry relative="1" as="geometry"/>
                </mxCell>
                <mxCell id="35" style="edgeStyle=orthogonalEdgeStyle;rounded=0;orthogonalLoop=1;jettySize=auto;html=1;" edge="1" parent="1" source="2" target="23">
                    <mxGeometry relative="1" as="geometry">
                        <Array as="points">
                            <mxPoint x="160" y="330"/>
                            <mxPoint x="160" y="330"/>
                        </Array>
                    </mxGeometry>
                </mxCell>
                <mxCell id="2" value="" style="rounded=1;whiteSpace=wrap;html=1;" parent="1" vertex="1">
                    <mxGeometry x="80" y="210" width="680" height="90" as="geometry"/>
                </mxCell>
                <mxCell id="3" value="Clients" style="whiteSpace=wrap;html=1;rounded=1;fillColor=#60a917;strokeColor=#2D7600;fontColor=#ffffff;strokeWidth=2;" parent="1" vertex="1">
                    <mxGeometry x="360" y="40" width="120" height="60" as="geometry"/>
                </mxCell>
                <mxCell id="38" style="edgeStyle=orthogonalEdgeStyle;rounded=0;orthogonalLoop=1;jettySize=auto;html=1;" edge="1" parent="1" source="11" target="33">
                    <mxGeometry relative="1" as="geometry"/>
                </mxCell>
                <mxCell id="11" value="Temporal&lt;br&gt;EventQueue" style="whiteSpace=wrap;html=1;rounded=1;" parent="1" vertex="1">
                    <mxGeometry x="590" y="510" width="160" height="130" as="geometry"/>
                </mxCell>
                <mxCell id="22" value="" style="edgeStyle=orthogonalEdgeStyle;rounded=0;orthogonalLoop=1;jettySize=auto;html=1;startArrow=classic;startFill=1;endArrow=none;endFill=0;" parent="1" source="19" target="21" edge="1">
                    <mxGeometry relative="1" as="geometry">
                        <Array as="points">
                            <mxPoint x="540" y="810"/>
                        </Array>
                    </mxGeometry>
                </mxCell>
                <mxCell id="37" style="edgeStyle=orthogonalEdgeStyle;rounded=0;orthogonalLoop=1;jettySize=auto;html=1;entryX=0.5;entryY=1;entryDx=0;entryDy=0;" edge="1" parent="1" source="19" target="11">
                    <mxGeometry relative="1" as="geometry">
                        <Array as="points">
                            <mxPoint x="670" y="700"/>
                        </Array>
                    </mxGeometry>
                </mxCell>
                <mxCell id="19" value="EventReader" style="whiteSpace=wrap;html=1;rounded=1;" parent="1" vertex="1">
                    <mxGeometry x="480" y="680" width="120" height="60" as="geometry"/>
                </mxCell>
                <mxCell id="21" value="EventDatabase" style="whiteSpace=wrap;html=1;rounded=1;" parent="1" vertex="1">
                    <mxGeometry x="360" y="780" width="120" height="60" as="geometry"/>
                </mxCell>
                <mxCell id="30" style="edgeStyle=orthogonalEdgeStyle;rounded=0;orthogonalLoop=1;jettySize=auto;html=1;startArrow=none;startFill=0;endArrow=classic;endFill=1;" parent="1" source="23" target="28" edge="1">
                    <mxGeometry relative="1" as="geometry">
                        <Array as="points">
                            <mxPoint x="160" y="710"/>
                        </Array>
                    </mxGeometry>
                </mxCell>
                <mxCell id="23" value="EventReceiver" style="whiteSpace=wrap;html=1;rounded=1;" parent="1" vertex="1">
                    <mxGeometry x="80" y="360" width="160" height="120" as="geometry"/>
                </mxCell>
                <mxCell id="31" style="edgeStyle=orthogonalEdgeStyle;rounded=0;orthogonalLoop=1;jettySize=auto;html=1;startArrow=none;startFill=0;endArrow=classic;endFill=1;entryX=0;entryY=0.5;entryDx=0;entryDy=0;" parent="1" source="28" target="21" edge="1">
                    <mxGeometry relative="1" as="geometry">
                        <mxPoint x="390" y="770" as="targetPoint"/>
                    </mxGeometry>
                </mxCell>
                <mxCell id="28" value="EventWriter" style="whiteSpace=wrap;html=1;rounded=1;" parent="1" vertex="1">
                    <mxGeometry x="240" y="680" width="120" height="60" as="geometry"/>
                </mxCell>
                <mxCell id="32" value="" style="shape=umlActor;verticalLabelPosition=bottom;verticalAlign=top;html=1;outlineConnect=0;strokeWidth=2;" parent="1" vertex="1">
                    <mxGeometry x="460" y="50" width="10" height="20" as="geometry"/>
                </mxCell>
                <mxCell id="34" style="edgeStyle=orthogonalEdgeStyle;rounded=0;orthogonalLoop=1;jettySize=auto;html=1;entryX=0.869;entryY=1.011;entryDx=0;entryDy=0;entryPerimeter=0;" edge="1" parent="1" source="33" target="2">
                    <mxGeometry relative="1" as="geometry"/>
                </mxCell>
                <mxCell id="33" value="EventDispatcher" style="whiteSpace=wrap;html=1;rounded=1;" vertex="1" parent="1">
                    <mxGeometry x="590" y="360" width="160" height="120" as="geometry"/>
                </mxCell>
                <mxCell id="40" value="Network Stack" style="text;html=1;strokeColor=none;fillColor=none;align=center;verticalAlign=middle;whiteSpace=wrap;rounded=0;" vertex="1" parent="1">
                    <mxGeometry x="375" y="210" width="90" height="20" as="geometry"/>
                </mxCell>
                <mxCell id="42" value="NETWORK STACK" style="text;html=1;strokeColor=none;fillColor=none;align=center;verticalAlign=middle;whiteSpace=wrap;rounded=0;fontStyle=1" vertex="1" parent="1">
                    <mxGeometry x="70" y="940" width="110" height="20" as="geometry"/>
                </mxCell>
                <mxCell id="47" value="" style="edgeStyle=orthogonalEdgeStyle;rounded=0;orthogonalLoop=1;jettySize=auto;html=1;startArrow=classic;startFill=1;" edge="1" parent="1" source="45" target="46">
                    <mxGeometry relative="1" as="geometry"/>
                </mxCell>
                <mxCell id="45" value="Incoming Message" style="rounded=1;whiteSpace=wrap;html=1;fillColor=#ffe6cc;strokeColor=#d79b00;arcSize=8;labelPosition=center;verticalLabelPosition=top;align=center;verticalAlign=bottom;" vertex="1" parent="1">
                    <mxGeometry x="70" y="1000" width="120" height="60" as="geometry"/>
                </mxCell>
                <mxCell id="46" value="Server" style="rounded=1;whiteSpace=wrap;html=1;fillColor=#ffe6cc;strokeColor=#d79b00;arcSize=8;" vertex="1" parent="1">
                    <mxGeometry x="270" y="1000" width="120" height="60" as="geometry"/>
                </mxCell>
                <mxCell id="48" value="Text" style="text;html=1;strokeColor=none;fillColor=none;align=center;verticalAlign=middle;whiteSpace=wrap;rounded=0;" vertex="1" parent="1">
                    <mxGeometry x="70" y="1000" width="120" height="60" as="geometry"/>
                </mxCell>
            </root>
        </mxGraphModel>
    </diagram>
</mxfile>